<?xml version="1.0" standalone="no"?>
<!DOCTYPE svg PUBLIC "-//W3C//DTD SVG 20010904//EN"
 "http://www.w3.org/TR/2001/REC-SVG-20010904/DTD/svg10.dtd">
<svg version="1.0" xmlns="http://www.w3.org/2000/svg"
 width="512.000000pt" height="512.000000pt" viewBox="0 0 512.000000 512.000000"
 preserveAspectRatio="xMidYMid meet">

<g transform="translate(0.000000,512.000000) scale(0.100000,-0.100000)"
fill="#000000" stroke="none">
<path d="M2025 5007 c-60 -29 -97 -67 -124 -127 -20 -43 -21 -65 -21 -425 -1
-411 -6 -479 -44 -600 -36 -114 -89 -197 -186 -296 -95 -97 -185 -152 -315
-196 -74 -24 -96 -27 -282 -31 l-203 -4 0 171 0 171 -425 0 -425 0 0 -85 0
-85 340 0 340 0 0 -1620 0 -1620 -340 0 -340 0 0 -85 0 -85 425 0 425 0 0 290
c0 160 2 290 4 290 2 0 34 -21 72 -47 97 -65 237 -129 351 -161 l98 -27 1475
-3 c1123 -2 1486 0 1520 9 147 39 261 150 306 298 31 102 8 252 -52 340 l-24
36 48 15 c152 50 264 177 292 330 20 109 -7 232 -70 319 l-30 41 52 26 c28 14
76 50 105 80 177 177 156 475 -44 626 l-54 41 29 31 c75 80 106 173 100 301
-3 80 -8 101 -38 161 -60 122 -173 208 -309 234 -34 6 -377 10 -933 10 l-879
0 -24 25 -25 24 0 568 c0 312 -5 602 -10 643 -23 180 -152 342 -328 412 -50
19 -79 23 -232 25 -168 4 -177 3 -225 -20z m402 -168 c79 -29 162 -112 194
-194 l24 -60 5 -625 c5 -616 5 -626 27 -665 25 -47 64 -85 113 -111 33 -18 82
-19 955 -24 907 -5 921 -5 965 -26 51 -24 103 -71 127 -117 8 -17 18 -59 21
-94 8 -102 -37 -190 -126 -245 l-37 -23 -610 -5 c-664 -5 -644 -4 -664 -62 -7
-18 -7 -38 0 -56 20 -59 -4 -57 704 -62 l650 -5 48 -28 c122 -72 162 -232 87
-350 -37 -59 -98 -103 -161 -116 -33 -7 -266 -11 -668 -11 l-618 0 -20 -22
c-29 -32 -34 -53 -21 -88 21 -61 13 -60 610 -60 l543 0 50 -24 c86 -40 135
-107 151 -203 14 -92 -48 -207 -140 -256 -40 -22 -49 -22 -608 -27 -562 -5
-568 -5 -589 -26 -28 -29 -28 -89 0 -118 21 -21 29 -21 459 -26 427 -5 438 -6
478 -27 91 -49 135 -114 142 -214 7 -108 -43 -196 -141 -244 l-53 -25 -1465 2
-1464 3 -80 23 c-119 34 -250 101 -363 189 l-102 78 3 1130 2 1130 210 6 c188
6 219 9 298 33 311 93 546 321 640 621 39 125 47 230 47 628 l0 368 25 24 c23
24 29 25 159 25 113 0 145 -3 193 -21z"/>
</g>
</svg>
